<?xml version="1.0" encoding="utf-8"?>
<!-- Generator: Adobe Illustrator 17.1.0, SVG Export Plug-In . SVG Version: 6.00 Build 0)  -->
<!DOCTYPE svg PUBLIC "-//W3C//DTD SVG 1.1//EN" "http://www.w3.org/Graphics/SVG/1.1/DTD/svg11.dtd">
<svg version="1.1" id="Layer_1" xmlns="http://www.w3.org/2000/svg" xmlns:xlink="http://www.w3.org/1999/xlink" x="0px" y="0px"
	 viewBox="0 0 376 160" enable-background="new 0 0 376 160" xml:space="preserve">
<g>
	<path fill="#0D353B" d="M177.4,116.4L177.4,116.4c2.9,0,5.2,0.9,6.9,2.8l0,0l0,0c1.8,1.9,2.6,4.5,2.6,7.9l0,0v14.1l0,0
		c0,0.7-0.2,1.3-0.7,1.8l0,0l0,0c-0.5,0.5-1.1,0.7-1.8,0.7l0,0l0,0c-0.7,0-1.3-0.2-1.8-0.7l0,0l0,0c-0.5-0.5-0.7-1.1-0.7-1.8l0,0
		v-14.1l0,0c0-2-0.5-3.5-1.5-4.6l0,0l0,0c-1-1-2.3-1.6-4-1.6l0,0l0,0c-1.7,0-3.1,0.6-4.2,1.8l0,0l0,0c-1.1,1.2-1.7,2.7-1.7,4.5l0,0
		v13.9l0,0c0,0.7-0.2,1.3-0.7,1.8l0,0l0,0c-0.5,0.5-1.1,0.7-1.8,0.7l0,0l0,0c-0.7,0-1.3-0.2-1.8-0.7l0,0l0,0
		c-0.5-0.5-0.7-1.1-0.7-1.8l0,0v-14.1l0,0c0-2-0.5-3.5-1.5-4.6l0,0l0,0c-1-1-2.3-1.6-4-1.6l0,0l0,0c-1.7,0-3.2,0.6-4.3,1.8l0,0l0,0
		c-1.1,1.2-1.7,2.7-1.7,4.5l0,0v13.9l0,0c0,0.7-0.2,1.3-0.7,1.8l0,0l0,0c-0.5,0.5-1.1,0.7-1.8,0.7l0,0l0,0c-0.7,0-1.3-0.2-1.8-0.7
		l0,0l0,0c-0.5-0.5-0.7-1.1-0.7-1.8l0,0v-22l0,0c0-0.8,0.2-1.4,0.7-1.8l0,0l0,0c0.5-0.5,1.1-0.7,1.8-0.7l0,0l0,0
		c0.7,0,1.3,0.2,1.8,0.7l0,0l0,0c0.5,0.4,0.7,1,0.7,1.8l0,0l0,0c0.9-0.9,1.9-1.5,3.1-2l0,0l0,0c1.2-0.5,2.5-0.7,3.9-0.7l0,0l0,0
		c1.7,0,3.2,0.3,4.5,1l0,0l0,0c1.3,0.7,2.4,1.6,3.3,2.9l0,0l0,0c1-1.2,2.2-2.2,3.7-2.9l0,0l0,0C173.9,116.8,175.5,116.4,177.4,116.4
		L177.4,116.4z M207.6,143.9L207.6,143.9c-2.6,0-5-0.6-7.1-1.8l0,0l0,0c-2.1-1.2-3.7-2.8-4.8-4.9l0,0l0,0c-1.2-2.1-1.7-4.4-1.7-7.1
		l0,0l0,0c0-2.7,0.6-5,1.7-7.1l0,0l0,0c1.2-2.1,2.8-3.7,4.8-4.9l0,0l0,0c2.1-1.2,4.4-1.8,7.1-1.8l0,0l0,0c2.6,0,4.9,0.6,7,1.8l0,0
		l0,0c2.1,1.2,3.7,2.8,4.8,4.9l0,0l0,0c1.2,2.1,1.8,4.5,1.8,7.1l0,0l0,0c0,2.6-0.6,5-1.7,7.1l0,0l0,0c-1.2,2.1-2.8,3.7-4.8,4.9l0,0
		l0,0C212.6,143.3,210.2,143.9,207.6,143.9L207.6,143.9z M207.6,139.5L207.6,139.5c1.7,0,3.2-0.4,4.5-1.2l0,0l0,0
		c1.3-0.8,2.4-1.9,3.1-3.3l0,0l0,0c0.7-1.4,1.1-3,1.1-4.8l0,0l0,0c0-1.8-0.4-3.4-1.1-4.8l0,0l0,0c-0.7-1.4-1.8-2.5-3.1-3.3l0,0l0,0
		c-1.3-0.8-2.8-1.2-4.5-1.2l0,0l0,0c-1.7,0-3.2,0.4-4.5,1.2l0,0l0,0c-1.3,0.8-2.4,1.9-3.1,3.3l0,0l0,0c-0.8,1.4-1.1,3-1.1,4.8l0,0
		l0,0c0,1.8,0.4,3.4,1.1,4.8l0,0l0,0c0.8,1.4,1.8,2.5,3.1,3.3l0,0l0,0C204.4,139.1,205.9,139.5,207.6,139.5L207.6,139.5z
		 M249.1,140.2L249.1,140.2c0.4,0.4,0.5,0.9,0.5,1.5l0,0l0,0c0,0.7-0.3,1.3-0.9,1.8l0,0l0,0c-0.5,0.4-1,0.6-1.6,0.6l0,0l0,0
		c-0.7,0-1.3-0.3-1.8-0.9l0,0l-9.4-11.6l-2.5,2.2v7.6l0,0c0,0.7-0.2,1.3-0.7,1.8l0,0l0,0c-0.4,0.4-1,0.7-1.8,0.7l0,0l0,0
		c-0.7,0-1.3-0.2-1.8-0.7l0,0l0,0c-0.4-0.4-0.7-1-0.7-1.8l0,0v-33.8l0,0c0-0.7,0.2-1.3,0.7-1.8l0,0l0,0c0.4-0.4,1-0.7,1.8-0.7l0,0
		l0,0c0.7,0,1.3,0.2,1.8,0.7l0,0l0,0c0.4,0.4,0.7,1,0.7,1.8l0,0v20.1l12-10.7l0,0c0.4-0.4,0.9-0.6,1.5-0.6l0,0l0,0
		c0.7,0,1.3,0.3,1.7,0.8l0,0l0,0c0.4,0.4,0.6,0.9,0.6,1.5l0,0l0,0c0,0.7-0.3,1.3-0.8,1.7l0,0l-9.1,8.1L249.1,140.2z M277.5,116.9
		L277.5,116.9c1,0.4,1.5,1,1.5,1.9l0,0l0,0c0,0.3-0.1,0.7-0.3,1.2l0,0l-15.1,34l0,0c-0.4,1-1,1.5-1.9,1.5l0,0l0,0
		c-0.3,0-0.7-0.1-1.2-0.3l0,0l0,0c-1-0.4-1.5-1.1-1.5-1.9l0,0l0,0c0-0.4,0.1-0.8,0.3-1.2l0,0l4.9-11.1l-11.1-21.1l0,0
		c-0.2-0.3-0.2-0.6-0.2-1l0,0l0,0c0-0.4,0.1-0.8,0.4-1.2l0,0l0,0c0.3-0.4,0.6-0.6,1-0.8l0,0l0,0c0.3-0.1,0.6-0.2,1-0.2l0,0l0,0
		c0.9,0,1.6,0.5,2.1,1.4l0,0l9,18l8-18l0,0c0.4-1,1.1-1.4,1.9-1.4l0,0l0,0C276.7,116.7,277.1,116.8,277.5,116.9L277.5,116.9z
		 M303.9,140.2L303.9,140.2c0.4,0.4,0.5,0.9,0.5,1.5l0,0l0,0c0,0.7-0.3,1.3-0.9,1.8l0,0l0,0c-0.5,0.4-1,0.6-1.6,0.6l0,0l0,0
		c-0.7,0-1.3-0.3-1.8-0.9l0,0l-9.4-11.6l-2.5,2.2v7.6l0,0c0,0.7-0.2,1.3-0.7,1.8l0,0l0,0c-0.4,0.4-1,0.7-1.8,0.7l0,0l0,0
		c-0.7,0-1.3-0.2-1.8-0.7l0,0l0,0c-0.4-0.4-0.7-1-0.7-1.8l0,0v-33.8l0,0c0-0.7,0.2-1.3,0.7-1.8l0,0l0,0c0.4-0.4,1-0.7,1.8-0.7l0,0
		l0,0c0.7,0,1.3,0.2,1.8,0.7l0,0l0,0c0.4,0.4,0.7,1,0.7,1.8l0,0v20.1l12-10.7l0,0c0.4-0.4,0.9-0.6,1.5-0.6l0,0l0,0
		c0.7,0,1.3,0.3,1.7,0.8l0,0l0,0c0.4,0.4,0.6,0.9,0.6,1.5l0,0l0,0c0,0.7-0.3,1.3-0.8,1.7l0,0l-9.1,8.1L303.9,140.2z M318.1,143.7
		L318.1,143.7c-1.4,0-2.7-0.4-3.8-1.2l0,0l0,0c-1.1-0.8-2-1.9-2.6-3.3l0,0l0,0c-0.6-1.4-0.9-3-0.9-4.7l0,0v-27l0,0
		c0-0.7,0.2-1.3,0.7-1.8l0,0l0,0c0.5-0.5,1.1-0.7,1.8-0.7l0,0l0,0c0.7,0,1.3,0.2,1.8,0.7l0,0l0,0c0.5,0.5,0.7,1.1,0.7,1.8l0,0v27
		l0,0c0,1.2,0.2,2.2,0.7,3l0,0l0,0c0.5,0.8,1.1,1.2,1.8,1.2l0,0h1.2l0,0c0.7,0,1.2,0.2,1.6,0.7l0,0l0,0c0.4,0.5,0.6,1.1,0.6,1.8l0,0
		l0,0c0,0.7-0.3,1.3-0.9,1.8l0,0l0,0C320,143.5,319.1,143.7,318.1,143.7L318.1,143.7L318.1,143.7z M338.7,116.5L338.7,116.5
		c2.5,0,4.8,0.6,6.9,1.8l0,0l0,0c2.1,1.2,3.7,2.9,4.9,4.9l0,0l0,0c1.2,2.1,1.8,4.4,1.8,7l0,0v11l0,0c0,0.7-0.2,1.3-0.7,1.8l0,0l0,0
		c-0.5,0.5-1.1,0.7-1.8,0.7l0,0l0,0c-0.7,0-1.3-0.2-1.8-0.7l0,0l0,0c-0.5-0.5-0.7-1.1-0.7-1.8l0,0v-1.8l0,0
		c-1.2,1.4-2.6,2.5-4.2,3.3l0,0l0,0c-1.6,0.8-3.4,1.2-5.3,1.2l0,0l0,0c-2.4,0-4.5-0.6-6.5-1.8l0,0l0,0c-1.9-1.2-3.4-2.8-4.5-4.9l0,0
		l0,0c-1.1-2.1-1.7-4.4-1.7-7l0,0l0,0c0-2.6,0.6-4.9,1.8-7l0,0l0,0c1.2-2.1,2.8-3.7,4.9-4.9l0,0l0,0
		C333.9,117.1,336.2,116.5,338.7,116.5L338.7,116.5z M338.7,139.5L338.7,139.5c1.6,0,3.1-0.4,4.5-1.2l0,0l0,0
		c1.3-0.8,2.4-1.9,3.1-3.3l0,0l0,0c0.8-1.4,1.1-3,1.1-4.7l0,0l0,0c0-1.7-0.4-3.3-1.1-4.7l0,0l0,0c-0.8-1.4-1.8-2.5-3.1-3.3l0,0l0,0
		c-1.3-0.8-2.8-1.2-4.5-1.2l0,0l0,0c-1.6,0-3.1,0.4-4.5,1.2l0,0l0,0c-1.3,0.8-2.4,1.9-3.2,3.3l0,0l0,0c-0.8,1.4-1.2,3-1.2,4.7l0,0
		l0,0c0,1.7,0.4,3.3,1.2,4.7l0,0l0,0c0.8,1.4,1.8,2.5,3.2,3.3l0,0l0,0C335.6,139.1,337.1,139.5,338.7,139.5L338.7,139.5z
		 M362.9,143.7L362.9,143.7c-0.7,0-1.3-0.2-1.8-0.7l0,0l0,0c-0.5-0.5-0.7-1.1-0.7-1.8l0,0v-22l0,0c0-0.8,0.2-1.4,0.7-1.8l0,0l0,0
		c0.5-0.5,1.1-0.7,1.8-0.7l0,0l0,0c0.8,0,1.4,0.2,1.8,0.7l0,0l0,0c0.5,0.5,0.7,1.1,0.7,1.8l0,0v22l0,0c0,0.7-0.2,1.3-0.7,1.8l0,0
		l0,0C364.2,143.5,363.6,143.7,362.9,143.7L362.9,143.7z M362.9,112.3L362.9,112.3c-0.9,0-1.7-0.3-2.3-1l0,0l0,0
		c-0.6-0.6-1-1.4-1-2.3l0,0l0,0c0-0.9,0.3-1.7,1-2.3l0,0l0,0c0.6-0.6,1.4-1,2.3-1l0,0l0,0c0.9,0,1.7,0.3,2.3,1l0,0l0,0
		c0.6,0.6,1,1.4,1,2.3l0,0l0,0c0,0.9-0.3,1.7-1,2.3l0,0l0,0C364.5,111.9,363.8,112.3,362.9,112.3L362.9,112.3z"/>
	<path fill="#0D353B" d="M12.4,143.7L12.4,143.7c-0.7,0-1.3-0.2-1.8-0.7l0,0l0,0c-0.5-0.5-0.7-1.1-0.7-1.8l0,0v-33.5l0,0
		c0-0.8,0.2-1.4,0.7-1.9l0,0l0,0c0.5-0.5,1.1-0.7,1.8-0.7l0,0l0,0c0.8,0,1.4,0.2,1.9,0.7l0,0l0,0c0.5,0.5,0.7,1.1,0.7,1.9l0,0v33.5
		l0,0c0,0.7-0.2,1.3-0.7,1.8l0,0l0,0C13.8,143.5,13.2,143.7,12.4,143.7L12.4,143.7z M27.5,143.7L27.5,143.7c-0.7,0-1.3-0.2-1.8-0.7
		l0,0l0,0c-0.5-0.5-0.8-1.1-0.8-1.8l0,0v-33.5l0,0c0-0.7,0.3-1.3,0.8-1.8l0,0l0,0c0.5-0.5,1.1-0.7,1.8-0.7l0,0l0,0
		c0.7,0,1.3,0.2,1.8,0.7l0,0l0,0c0.5,0.5,0.7,1.1,0.7,1.8l0,0v14.8l16.4-16.4l0,0c0.4-0.4,0.8-0.7,1.1-0.8l0,0l0,0
		c0.3-0.1,0.7-0.2,1.1-0.2l0,0l0,0c0.7,0,1.2,0.2,1.6,0.6l0,0l0,0c0.4,0.4,0.6,0.9,0.6,1.5l0,0l0,0c0,0.9-0.3,1.6-0.9,2.2l0,0
		l-12.6,12.7L50,139.6l0,0c0.3,0.5,0.5,1,0.5,1.6l0,0l0,0c0,0.7-0.2,1.2-0.6,1.8l0,0l0,0c-0.4,0.5-1,0.8-1.6,0.8l0,0l0,0
		c-0.9,0-1.6-0.4-2.1-1.1l0,0l-12.5-17l-3.6,3.6v11.9l0,0c0,0.7-0.2,1.3-0.7,1.8l0,0l0,0C28.8,143.5,28.2,143.7,27.5,143.7
		L27.5,143.7z M82.5,105.1L82.5,105.1c0.7,0,1.3,0.2,1.7,0.7l0,0l0,0c0.4,0.4,0.7,1,0.7,1.7l0,0l0,0c0,0.7-0.2,1.3-0.7,1.7l0,0l0,0
		c-0.4,0.4-1,0.7-1.7,0.7l0,0H71.9v31.3l0,0c0,0.7-0.2,1.3-0.7,1.8l0,0l0,0c-0.5,0.5-1.1,0.7-1.8,0.7l0,0l0,0
		c-0.7,0-1.3-0.2-1.8-0.7l0,0l0,0c-0.5-0.5-0.7-1.1-0.7-1.8l0,0v-31.3H56.1l0,0c-0.7,0-1.3-0.2-1.7-0.7l0,0l0,0
		c-0.4-0.4-0.7-1-0.7-1.7l0,0l0,0c0-0.7,0.2-1.3,0.7-1.7l0,0l0,0c0.4-0.4,1-0.7,1.7-0.7l0,0H82.5z"/>
	<g id="Medis2_2_">
		<path fill="#603813" d="M116.1,26.9l-6.7,118.5h13.1L116.1,26.9z"/>
		<path fill="#603813" d="M117.9,99.3c3-2.6,28.1-21,28.1-21l-28.5,28.1L117.9,99.3z"/>
		<path fill="#603813" d="M115.3,86.5l-0.4,5.6L80.4,72.7L115.3,86.5z"/>
		<path fill="#603813" d="M116.4,68.5V73l24-16.9L116.4,68.5z"/>
		<path fill="#603813" d="M115.3,50.2l-15.7-8.2L115.7,55L115.3,50.2z"/>
		<path fill="#BFD74E" d="M144.2,70c0-3.9,3.2-7.1,7.1-7.1c3.9,0,7.1,3.2,7.1,7.1c0,3.9-3.2,7.1-7.1,7.1
			C147.4,77.2,144.2,74,144.2,70z"/>
		<path fill="#E29F37" d="M144.9,47.9c0,3.9-3.2,7.1-7.1,7.1c-3.9,0-7.1-3.2-7.1-7.1c0-3.9,3.2-7.1,7.1-7.1
			C141.7,40.8,144.9,44,144.9,47.9z"/>
		<path fill="#E29F37" d="M156,83.2c0,2.8-2.3,5.1-5.1,5.1c-2.8,0-5.1-2.3-5.1-5.1c0-2.8,2.3-5.1,5.1-5.1
			C153.7,78.1,156,80.4,156,83.2z"/>
		<path fill="#8A8A47" d="M87.2,63.7c0,4.3-3.5,7.9-7.9,7.9c-4.3,0-7.9-3.5-7.9-7.9s3.5-7.9,7.9-7.9C83.7,55.8,87.2,59.3,87.2,63.7z
			"/>
		<path fill="#BFD74E" d="M115.5,18.3c0-4.7,3.8-8.4,8.4-8.4c4.7,0,8.4,3.8,8.4,8.4s-3.8,8.4-8.4,8.4
			C119.3,26.7,115.5,22.9,115.5,18.3z"/>
		<path fill="#487F3F" d="M114.8,22.2c0,2.3-1.8,4.1-4.1,4.1c-2.3,0-4.1-1.8-4.1-4.1c0-2.3,1.8-4.1,4.1-4.1
			C112.9,18.1,114.8,19.9,114.8,22.2z"/>
		<path fill="#8A8A47" d="M149.3,58.2c0,2.3-1.8,4.1-4.1,4.1c-2.3,0-4.1-1.8-4.1-4.1c0-2.3,1.8-4.1,4.1-4.1
			C147.4,54.1,149.3,55.9,149.3,58.2z"/>
		<path fill="#BFD74E" d="M150.9,39.2c0,2.3-1.8,4.1-4.1,4.1c-2.3,0-4.1-1.8-4.1-4.1c0-2.3,1.8-4.1,4.1-4.1
			C149,35.1,150.9,36.9,150.9,39.2z"/>
		<path fill="#BFD74E" d="M156.6,30.9c0,2.3-1.8,4.1-4.1,4.1c-2.3,0-4.1-1.8-4.1-4.1s1.8-4.1,4.1-4.1
			C154.8,26.7,156.6,28.6,156.6,30.9z"/>
		<path fill="#8A8A47" d="M157.3,48.7c0,2.9-2.4,5.2-5.2,5.2c-2.9,0-5.2-2.3-5.2-5.2c0-2.9,2.3-5.2,5.2-5.2
			C155,43.4,157.3,45.8,157.3,48.7z"/>
		<path fill="#487F3F" d="M164.4,39c0,2.9-2.4,5.2-5.3,5.2c-2.9,0-5.3-2.4-5.3-5.2c0-2.9,2.4-5.3,5.3-5.3
			C162,33.7,164.4,36.1,164.4,39z"/>
		<path fill="#8A8A47" d="M129.9,45.7c0,2.9-2.4,5.2-5.2,5.2c-2.9,0-5.3-2.4-5.3-5.2c0-2.9,2.3-5.2,5.3-5.2
			C127.6,40.4,129.9,42.8,129.9,45.7z"/>
		<path fill="#487F3F" d="M128.1,32.9c0,2.9-2.3,5.2-5.2,5.2c-2.9,0-5.3-2.4-5.3-5.2s2.4-5.3,5.3-5.3
			C125.7,27.7,128.1,30,128.1,32.9z"/>
		<path fill="#BFD74E" d="M140.1,31c0,2.9-2.4,5.2-5.2,5.2c-2.9,0-5.2-2.3-5.2-5.2c0-2.9,2.4-5.2,5.2-5.2
			C137.7,25.8,140.1,28.1,140.1,31z"/>
		<path fill="#E29F37" d="M81.6,77.9c0,2.9-2.4,5.3-5.2,5.3c-2.9,0-5.3-2.4-5.3-5.3c0-2.9,2.4-5.2,5.3-5.2
			C79.2,72.7,81.6,75,81.6,77.9z"/>
		<path fill="#487F3F" d="M91.7,84.3c0,2.9-2.3,5.3-5.2,5.3c-2.9,0-5.3-2.4-5.3-5.3c0-2.9,2.4-5.3,5.3-5.3
			C89.3,79,91.7,81.4,91.7,84.3z"/>
		<path fill="#487F3F" d="M97.7,58.8c0,2.9-2.4,5.2-5.3,5.2c-2.9,0-5.2-2.4-5.2-5.2s2.4-5.3,5.2-5.3C95.3,53.5,97.7,55.9,97.7,58.8z
			"/>
		<path fill="#BFD74E" d="M74.1,52.8c0,2.9-2.3,5.2-5.2,5.2c-2.9,0-5.2-2.3-5.2-5.2c0-2.9,2.3-5.2,5.2-5.2
			C71.7,47.5,74.1,49.9,74.1,52.8z"/>
		<path fill="#8A8A47" d="M69.6,63.7c0,2.1-1.7,3.7-3.7,3.7c-2.1,0-3.8-1.7-3.8-3.7c0-2.1,1.7-3.7,3.8-3.7
			C67.9,59.9,69.6,61.6,69.6,63.7z"/>
		<path fill="#8A8A47" d="M89.8,40.4c0,2.1-1.7,3.7-3.7,3.7c-2.1,0-3.7-1.7-3.7-3.7c0-2.1,1.7-3.7,3.7-3.7
			C88.1,36.7,89.8,38.3,89.8,40.4z"/>
		<path fill="#8A8A47" d="M132.8,38.5c0,1.4-1.1,2.5-2.5,2.5c-1.4,0-2.5-1.1-2.5-2.5c0-1.4,1.1-2.5,2.5-2.5
			C131.7,36,132.8,37.1,132.8,38.5z"/>
		<path fill="#487F3F" d="M82.2,43.3c0,1.4-1.1,2.5-2.5,2.5c-1.4,0-2.5-1.1-2.5-2.5c0-1.4,1.1-2.5,2.5-2.5
			C81,40.8,82.2,41.9,82.2,43.3z"/>
		<path fill="#487F3F" d="M114,44.1c0,1.4-1.1,2.5-2.5,2.5c-1.4,0-2.5-1.1-2.5-2.5c0-1.4,1.1-2.5,2.5-2.5
			C112.8,41.6,114,42.7,114,44.1z"/>
		<path fill="#8A8A47" d="M110.2,29.3c0,1.4-1.1,2.5-2.5,2.5c-1.4,0-2.5-1.1-2.5-2.5c0-1.4,1.1-2.5,2.5-2.5
			C109.1,26.8,110.2,28,110.2,29.3z"/>
		<path fill="#487F3F" d="M115.3,32c0,1.4-1.1,2.5-2.5,2.5c-1.4,0-2.5-1.1-2.5-2.5c0-1.4,1.1-2.5,2.5-2.5
			C114.2,29.4,115.3,30.6,115.3,32z"/>
		<path fill="#BFD74E" d="M107.3,16.9c0,1.4-1.1,2.5-2.5,2.5c-1.4,0-2.5-1.1-2.5-2.5s1.1-2.5,2.5-2.5
			C106.2,14.4,107.3,15.5,107.3,16.9z"/>
		<path fill="#8A8A47" d="M97.2,19.8c0-1.4,1.1-2.5,2.5-2.5c1.4,0,2.5,1.1,2.5,2.5s-1.1,2.5-2.5,2.5C98.3,22.3,97.2,21.2,97.2,19.8z
			"/>
		<path fill="#487F3F" d="M101.7,13.8c0,1.4-1.1,2.5-2.5,2.5c-1.4,0-2.5-1.1-2.5-2.5c0-1.4,1.1-2.5,2.5-2.5
			C100.6,11.3,101.7,12.4,101.7,13.8z"/>
		<path fill="#487F3F" d="M58.9,57.1c0-1.4,1.1-2.5,2.5-2.5c1.4,0,2.5,1.1,2.5,2.5c0,1.4-1.1,2.5-2.5,2.5
			C60,59.6,58.9,58.5,58.9,57.1z"/>
		<path fill="#E29F37" d="M80.5,86.3c0,1.4-1.1,2.5-2.5,2.5c-1.4,0-2.5-1.1-2.5-2.5c0-1.4,1.1-2.5,2.5-2.5
			C79.4,83.7,80.5,84.9,80.5,86.3z"/>
		<path fill="#BFD74E" d="M103.3,56.6c0,1.4-1.1,2.5-2.5,2.5c-1.4,0-2.5-1.1-2.5-2.5c0-1.4,1.1-2.5,2.5-2.5
			C102.2,54,103.3,55.2,103.3,56.6z"/>
		<path fill="#BFD74E" d="M97.6,50.7c0,1.4-1.1,2.5-2.5,2.5c-1.4,0-2.5-1.1-2.5-2.5c0-1.4,1.1-2.5,2.5-2.5
			C96.4,48.1,97.6,49.3,97.6,50.7z"/>
		<path fill="#487F3F" d="M96.4,45.1c0,1.4-1.1,2.5-2.5,2.5c-1.4,0-2.5-1.1-2.5-2.5c0-1.4,1.1-2.5,2.5-2.5
			C95.3,42.6,96.4,43.7,96.4,45.1z"/>
		<path fill="#BFD74E" d="M103.3,50.7c0,1.4-1.1,2.5-2.5,2.5c-1.4,0-2.5-1.1-2.5-2.5c0-1.4,1.1-2.5,2.5-2.5
			C102.2,48.1,103.3,49.3,103.3,50.7z"/>
		<path fill="#487F3F" d="M105.6,66.7c0-1.4,1.1-2.5,2.5-2.5c1.4,0,2.5,1.1,2.5,2.5c0,1.4-1.1,2.5-2.5,2.5
			C106.8,69.3,105.6,68.1,105.6,66.7z"/>
		<path fill="#487F3F" d="M118.3,53.5c0-1.4,1.1-2.5,2.5-2.5c1.4,0,2.5,1.1,2.5,2.5c0,1.4-1.1,2.5-2.5,2.5
			C119.4,56,118.3,54.9,118.3,53.5z"/>
		<path fill="#487F3F" d="M135,76.8c0,1.4-1.1,2.5-2.5,2.5s-2.5-1.1-2.5-2.5c0-1.4,1.1-2.5,2.5-2.5C133.8,74.2,135,75.4,135,76.8z"
			/>
		<path fill="#BFD74E" d="M146.5,18.7c0,1.4-1.1,2.5-2.5,2.5c-1.4,0-2.5-1.1-2.5-2.5c0-1.4,1.1-2.5,2.5-2.5
			C145.3,16.2,146.5,17.3,146.5,18.7z"/>
		<path fill="#487F3F" d="M146.6,32.8c0,1.4-1.1,2.5-2.5,2.5c-1.4,0-2.5-1.1-2.5-2.5c0-1.4,1.1-2.5,2.5-2.5
			C145.5,30.3,146.6,31.4,146.6,32.8z"/>
		<path fill="#487F3F" d="M150.3,57.4c0-1.4,1.1-2.5,2.5-2.5c1.4,0,2.5,1.1,2.5,2.5c0,1.4-1.1,2.5-2.5,2.5
			C151.4,59.9,150.3,58.8,150.3,57.4z"/>
		<path fill="#487F3F" d="M140.9,85.9c0-1.4,1.1-2.5,2.5-2.5s2.5,1.1,2.5,2.5s-1.1,2.5-2.5,2.5S140.9,87.3,140.9,85.9z"/>
		<path fill="#487F3F" d="M141,91.5c0,1.4-1.1,2.5-2.5,2.5c-1.4,0-2.5-1.1-2.5-2.5c0-1.4,1.1-2.5,2.5-2.5
			C139.9,89,141,90.1,141,91.5z"/>
		<path fill="#BFD74E" d="M132.5,81.5c0-1.4,1.1-2.5,2.5-2.5s2.5,1.1,2.5,2.5s-1.1,2.5-2.5,2.5S132.5,82.9,132.5,81.5z"/>
		<path fill="#8A8A47" d="M104.5,57.7c0-1.4,1.1-2.5,2.5-2.5c1.4,0,2.5,1.1,2.5,2.5c0,1.4-1.1,2.5-2.5,2.5
			C105.6,60.3,104.5,59.1,104.5,57.7z"/>
		<path fill="#BFD74E" d="M163.2,47.2c0,1.4-1.1,2.5-2.5,2.5c-1.4,0-2.5-1.1-2.5-2.5c0-1.4,1.1-2.5,2.5-2.5
			C162.1,44.7,163.2,45.8,163.2,47.2z"/>
		<path fill="#E29F37" d="M82.3,19.5c0-1.4,1.1-2.5,2.5-2.5c1.4,0,2.5,1.1,2.5,2.5S86.3,22,84.9,22C83.5,22,82.3,20.9,82.3,19.5z"/>
		<path fill="#E29F37" d="M80.1,36.7c0,2.1-1.7,3.7-3.7,3.7c-2.1,0-3.8-1.7-3.8-3.7c0-2.1,1.7-3.7,3.8-3.7
			C78.4,32.9,80.1,34.6,80.1,36.7z"/>
		<path fill="#BFD74E" d="M96.2,19.4c0,2.1-1.7,3.7-3.7,3.7c-2.1,0-3.7-1.7-3.7-3.7s1.7-3.7,3.7-3.7C94.5,15.7,96.2,17.3,96.2,19.4z
			"/>
		<path fill="#8A8A47" d="M107.4,13c0-2.1,1.7-3.7,3.7-3.7c2.1,0,3.7,1.7,3.7,3.7s-1.7,3.7-3.7,3.7C109.1,16.8,107.4,15.1,107.4,13z
			"/>
		<path fill="#BFD74E" d="M137.4,8.2c0,2.1-1.7,3.8-3.7,3.8s-3.7-1.7-3.7-3.8c0-2.1,1.7-3.7,3.7-3.7S137.4,6.1,137.4,8.2z"/>
		<path fill="#E29F37" d="M140.8,20.9c0,2.1-1.7,3.7-3.7,3.7c-2.1,0-3.8-1.7-3.8-3.7c0-2.1,1.7-3.8,3.8-3.8
			C139.1,17.2,140.8,18.8,140.8,20.9z"/>
		<path fill="#8A8A47" d="M149.1,25.8c0,2.1-1.7,3.7-3.8,3.7c-2.1,0-3.7-1.7-3.7-3.7c0-2.1,1.7-3.7,3.7-3.7
			C147.4,22,149.1,23.7,149.1,25.8z"/>
		<path fill="#BFD74E" d="M134.4,63.3c0-2.1,1.7-3.7,3.7-3.7c2.1,0,3.7,1.7,3.7,3.7c0,2.1-1.7,3.7-3.7,3.7
			C136.1,67,134.4,65.4,134.4,63.3z"/>
		<path fill="#487F3F" d="M135.9,69.7c0,2.1-1.7,3.7-3.7,3.7c-2.1,0-3.7-1.7-3.7-3.7c0-2.1,1.7-3.8,3.7-3.8
			C134.3,65.9,135.9,67.6,135.9,69.7z"/>
		<path fill="#487F3F" d="M164.4,78.6c0,2.1-1.7,3.8-3.7,3.8c-2.1,0-3.8-1.7-3.8-3.8c0-2.1,1.7-3.7,3.8-3.7
			C162.8,74.9,164.4,76.6,164.4,78.6z"/>
		<path fill="#8A8A47" d="M164.8,55.6c0,2.2-1.8,4-4,4c-2.2,0-4-1.8-4-4c0-2.2,1.8-4,4-4C163,51.6,164.8,53.4,164.8,55.6z"/>
		<path fill="#BFD74E" d="M166.1,64.3c0,2.2-1.8,4-4,4c-2.2,0-4-1.8-4-4s1.8-4,4-4C164.3,60.3,166.1,62.1,166.1,64.3z"/>
		<path fill="#487F3F" d="M170.8,72c0,2.2-1.8,4-4,4c-2.2,0-4-1.8-4-4c0-2.2,1.8-4,4-4C169,68,170.8,69.8,170.8,72z"/>
		<path fill="#8A8A47" d="M105.7,63.8c0,2.2-1.8,4-4,4c-2.2,0-4-1.8-4-4c0-2.2,1.8-4,4-4C103.9,59.8,105.7,61.6,105.7,63.8z"/>
		<path fill="#E29F37" d="M82.9,50.8c0,2.2-1.8,4-4,4c-2.2,0-4-1.8-4-4c0-2.2,1.8-4,4-4C81.1,46.8,82.9,48.6,82.9,50.8z"/>
		<path fill="#8A8A47" d="M74.9,43c0,2.2-1.8,4-4,4c-2.2,0-4-1.8-4-4s1.8-4,4-4C73.1,39,74.9,40.8,74.9,43z"/>
		<path fill="#BFD74E" d="M91.6,48.7c0,2.2-1.8,4-4,4c-2.2,0-4-1.8-4-4c0-2.2,1.8-4,4-4C89.8,44.7,91.6,46.5,91.6,48.7z"/>
		<path fill="#487F3F" d="M106.9,72.5c0,2.2-1.8,4-4,4c-2.2,0-4-1.8-4-4c0-2.2,1.8-4,4-4C105.2,68.5,106.9,70.3,106.9,72.5z"/>
		<path fill="#BFD74E" d="M131.4,55.4c0,2.1-1.7,3.8-3.8,3.8c-2.1,0-3.7-1.7-3.7-3.8c0-2.1,1.7-3.7,3.7-3.7
			C129.8,51.7,131.4,53.3,131.4,55.4z"/>
		<path fill="#BFD74E" d="M111.2,37.4c0,2.9-2.4,5.2-5.3,5.2c-2.9,0-5.2-2.4-5.2-5.2c0-2.9,2.4-5.2,5.2-5.2
			C108.8,32.2,111.2,34.5,111.2,37.4z"/>
		<path fill="#487F3F" d="M104.1,28c0,2.9-2.4,5.2-5.2,5.2c-2.9,0-5.3-2.4-5.3-5.2s2.4-5.2,5.3-5.2C101.7,22.8,104.1,25.1,104.1,28z
			"/>
		<path fill="#BFD74E" d="M79.3,29.5c0-3.5,2.9-6.4,6.4-6.4s6.4,2.9,6.4,6.4s-2.9,6.4-6.4,6.4S79.3,33.1,79.3,29.5z"/>
		<path fill="#BFD74E" d="M98.4,70c0,2.9-2.3,5.2-5.2,5.2c-2.9,0-5.3-2.4-5.3-5.2c0-2.9,2.4-5.2,5.3-5.2
			C96.1,64.8,98.4,67.1,98.4,70z"/>
		<path fill="#E29F37" d="M98.8,38.2c0,2.3-1.8,4.1-4.1,4.1c-2.3,0-4.1-1.8-4.1-4.1c0-2.3,1.8-4.1,4.1-4.1
			C97,34,98.8,35.9,98.8,38.2z"/>
		<path fill="#8A8A47" d="M143.8,75.3c0,2.3-1.8,4.1-4.1,4.1c-2.3,0-4.1-1.8-4.1-4.1c0-2.3,1.8-4.1,4.1-4.1
			C142,71.2,143.8,73,143.8,75.3z"/>
	</g>
</g>
</svg>
